<svg id="Layer_1" data-name="Layer 1" xmlns="http://www.w3.org/2000/svg" viewBox="0 0 438.23 349.03"><defs><style>.cls-1{fill:#1ec900;}.cls-2{fill:red;}</style></defs><title>payroll change time</title><path class="cls-1" d="M1201.62,746.06h-160c-4.07,0-4.07,0-4.07,4.16,0,19.08,0,38.17,0,57.25a10.47,10.47,0,0,1-15.45,9.3,12.17,12.17,0,0,1-2.73-2.15q-40.5-40.46-81-81c-5.33-5.33-5.42-11.31-.06-16.7,6.69-6.73,13.6-13.26,20.31-20s13.15-13.47,19.78-20.15q15.32-15.42,30.73-30.75c3.35-3.35,6.64-6.77,10.07-10,5.47-5.19,13.61-4.19,17,2.17a12.11,12.11,0,0,1,1.24,5.49c.09,18.83.05,37.67.05,56.5,0,4.27,0,4.27,4.24,4.27q158.5,0,317,0a21.45,21.45,0,0,1,7.34,1.1c4.22,1.57,6.37,5,6.42,9.5.06,6.75,0,13.5,0,20.25,0,6.4-4.24,10.65-10.67,10.65q-35,0-70,0Z" transform="translate(-934.34 -469.02)"/><path class="cls-2" d="M1105.29,541h160c4.07,0,4.07,0,4.07-4.16,0-19.08,0-38.17,0-57.25a10.47,10.47,0,0,1,15.45-9.3,12.17,12.17,0,0,1,2.73,2.15q40.5,40.46,81,81c5.33,5.33,5.42,11.31.06,16.7-6.69,6.73-13.6,13.26-20.31,20s-13.15,13.47-19.78,20.15q-15.32,15.42-30.73,30.75c-3.35,3.35-6.64,6.77-10.07,10-5.47,5.19-13.61,4.19-17-2.17a12.11,12.11,0,0,1-1.24-5.49c-.09-18.83-.05-37.67-.05-56.5,0-4.27,0-4.27-4.24-4.27q-158.5,0-317,0a21.45,21.45,0,0,1-7.34-1.1c-4.22-1.57-6.37-5-6.42-9.5-.06-6.75,0-13.5,0-20.25,0-6.4,4.24-10.65,10.67-10.65q35,0,70,0Z" transform="translate(-934.34 -469.02)"/></svg>